# Blender 3.3.1
# www.blender.org
mtllib RoomCursed.mtl
o RoomCursed
v 5.201608 0.055164 -5.139839
v 5.201608 0.055161 3.602999
v -4.681448 0.055161 3.602999
v -4.681448 6.034382 -5.139837
v 5.201608 6.034382 -5.139837
v -4.681448 0.055164 -5.139839
v -4.681448 6.034379 3.603001
v 5.201608 6.034380 3.603000
v -0.777266 -0.000001 4.122310
v 0.777266 -0.000001 4.122310
v -0.777266 -0.000000 2.122309
v 0.777266 -0.000000 2.122309
vn -0.0000 1.0000 -0.0000
vn 1.0000 -0.0000 -0.0000
vn -0.0000 -0.0000 1.0000
vn -1.0000 -0.0000 -0.0000
vt 0.757072 0.179637
vt 0.476035 0.133262
vt 0.429446 0.132803
vt 0.757072 0.133142
vt 0.475984 0.133291
vt 0.711337 0.133142
vt 0.430161 0.133600
vt 0.476346 0.179723
vt 0.429989 0.179731
vt 0.476035 0.179731
vt 0.429446 0.178810
vt 0.711337 0.179637
vt 0.476346 0.133600
vt 0.429989 0.133262
vt 0.430161 0.179723
vt 0.475984 0.179298
vt 0.663547 0.179686
vt 0.663547 0.132967
vt 0.689657 0.179686
vt 0.689657 0.132967
s 0
usemtl Material.001
f 1/1/1 6/12/1 3/6/1 2/4/1
f 3/7/2 6/13/2 4/8/2 7/15/2
f 6/14/3 1/2/3 5/10/3 4/9/3
f 1/3/4 2/5/4 8/16/4 5/11/4
f 9/17/1 10/18/1 12/20/1 11/19/1
